<mxfile host="app.diagrams.net" modified="2022-03-16T13:45:00.037Z" agent="5.0 (Windows NT 10.0; Win64; x64) AppleWebKit/537.36 (KHTML, like Gecko) Chrome/99.0.4844.51 Safari/537.36" etag="I5IcwrjGydkjN3JDyrTc" version="17.1.3" type="github">
  <diagram id="41i6ykr-8fb3hP3-e1fZ" name="Page-1">
    <mxGraphModel dx="1021" dy="567" grid="1" gridSize="10" guides="1" tooltips="1" connect="1" arrows="1" fold="1" page="1" pageScale="1" pageWidth="827" pageHeight="1169" math="0" shadow="0">
      <root>
        <mxCell id="0" />
        <mxCell id="1" parent="0" />
        <mxCell id="NmY_XiNPB2C1pSM7X4Uj-10" value="" style="edgeStyle=orthogonalEdgeStyle;rounded=0;orthogonalLoop=1;jettySize=auto;html=1;" parent="1" source="NmY_XiNPB2C1pSM7X4Uj-1" target="NmY_XiNPB2C1pSM7X4Uj-2" edge="1">
          <mxGeometry relative="1" as="geometry" />
        </mxCell>
        <mxCell id="NmY_XiNPB2C1pSM7X4Uj-1" value="inicio" style="rounded=1;whiteSpace=wrap;html=1;" parent="1" vertex="1">
          <mxGeometry x="354" y="40" width="120" height="60" as="geometry" />
        </mxCell>
        <mxCell id="4rZA8uT_l3_e-FzTYz1B-2" style="edgeStyle=orthogonalEdgeStyle;rounded=0;orthogonalLoop=1;jettySize=auto;html=1;entryX=0.5;entryY=0;entryDx=0;entryDy=0;" edge="1" parent="1" source="NmY_XiNPB2C1pSM7X4Uj-2" target="NmY_XiNPB2C1pSM7X4Uj-19">
          <mxGeometry relative="1" as="geometry" />
        </mxCell>
        <mxCell id="NmY_XiNPB2C1pSM7X4Uj-2" value="x" style="shape=parallelogram;perimeter=parallelogramPerimeter;whiteSpace=wrap;html=1;fixedSize=1;" parent="1" vertex="1">
          <mxGeometry x="354" y="130" width="120" height="60" as="geometry" />
        </mxCell>
        <mxCell id="NmY_XiNPB2C1pSM7X4Uj-18" style="edgeStyle=orthogonalEdgeStyle;rounded=0;orthogonalLoop=1;jettySize=auto;html=1;entryX=0.5;entryY=0;entryDx=0;entryDy=0;" parent="1" source="NmY_XiNPB2C1pSM7X4Uj-5" target="NmY_XiNPB2C1pSM7X4Uj-16" edge="1">
          <mxGeometry relative="1" as="geometry" />
        </mxCell>
        <mxCell id="NmY_XiNPB2C1pSM7X4Uj-5" value="maior = y" style="shape=document;whiteSpace=wrap;html=1;boundedLbl=1;" parent="1" vertex="1">
          <mxGeometry x="220" y="540" width="120" height="80" as="geometry" />
        </mxCell>
        <mxCell id="NmY_XiNPB2C1pSM7X4Uj-16" value="fim" style="rounded=1;whiteSpace=wrap;html=1;" parent="1" vertex="1">
          <mxGeometry x="354" y="660" width="120" height="60" as="geometry" />
        </mxCell>
        <mxCell id="4rZA8uT_l3_e-FzTYz1B-8" style="edgeStyle=orthogonalEdgeStyle;rounded=0;orthogonalLoop=1;jettySize=auto;html=1;entryX=0.5;entryY=0;entryDx=0;entryDy=0;" edge="1" parent="1" source="NmY_XiNPB2C1pSM7X4Uj-19" target="4rZA8uT_l3_e-FzTYz1B-7">
          <mxGeometry relative="1" as="geometry" />
        </mxCell>
        <mxCell id="NmY_XiNPB2C1pSM7X4Uj-19" value="y" style="shape=parallelogram;perimeter=parallelogramPerimeter;whiteSpace=wrap;html=1;fixedSize=1;" parent="1" vertex="1">
          <mxGeometry x="354" y="220" width="120" height="60" as="geometry" />
        </mxCell>
        <mxCell id="4rZA8uT_l3_e-FzTYz1B-18" style="edgeStyle=orthogonalEdgeStyle;rounded=0;orthogonalLoop=1;jettySize=auto;html=1;entryX=0.5;entryY=0;entryDx=0;entryDy=0;" edge="1" parent="1" target="4rZA8uT_l3_e-FzTYz1B-17">
          <mxGeometry relative="1" as="geometry">
            <mxPoint x="570.0588235294119" y="559.9411764705881" as="sourcePoint" />
          </mxGeometry>
        </mxCell>
        <mxCell id="4rZA8uT_l3_e-FzTYz1B-12" style="edgeStyle=orthogonalEdgeStyle;rounded=0;orthogonalLoop=1;jettySize=auto;html=1;entryX=0.5;entryY=0;entryDx=0;entryDy=0;" edge="1" parent="1" source="4rZA8uT_l3_e-FzTYz1B-7" target="4rZA8uT_l3_e-FzTYz1B-10">
          <mxGeometry relative="1" as="geometry" />
        </mxCell>
        <mxCell id="4rZA8uT_l3_e-FzTYz1B-14" style="edgeStyle=orthogonalEdgeStyle;rounded=0;orthogonalLoop=1;jettySize=auto;html=1;entryX=0.5;entryY=0;entryDx=0;entryDy=0;" edge="1" parent="1" source="4rZA8uT_l3_e-FzTYz1B-7" target="4rZA8uT_l3_e-FzTYz1B-11">
          <mxGeometry relative="1" as="geometry" />
        </mxCell>
        <mxCell id="4rZA8uT_l3_e-FzTYz1B-7" value="y&amp;gt;x" style="rhombus;whiteSpace=wrap;html=1;" vertex="1" parent="1">
          <mxGeometry x="374" y="310" width="80" height="80" as="geometry" />
        </mxCell>
        <mxCell id="4rZA8uT_l3_e-FzTYz1B-13" style="edgeStyle=orthogonalEdgeStyle;rounded=0;orthogonalLoop=1;jettySize=auto;html=1;entryX=0;entryY=0.5;entryDx=0;entryDy=0;" edge="1" parent="1" source="4rZA8uT_l3_e-FzTYz1B-10" target="NmY_XiNPB2C1pSM7X4Uj-5">
          <mxGeometry relative="1" as="geometry" />
        </mxCell>
        <mxCell id="4rZA8uT_l3_e-FzTYz1B-10" value="verdadeiro" style="rounded=0;whiteSpace=wrap;html=1;" vertex="1" parent="1">
          <mxGeometry x="210" y="380" width="120" height="60" as="geometry" />
        </mxCell>
        <mxCell id="4rZA8uT_l3_e-FzTYz1B-16" style="edgeStyle=orthogonalEdgeStyle;rounded=0;orthogonalLoop=1;jettySize=auto;html=1;" edge="1" parent="1" source="4rZA8uT_l3_e-FzTYz1B-11">
          <mxGeometry relative="1" as="geometry">
            <mxPoint x="580" y="590" as="targetPoint" />
          </mxGeometry>
        </mxCell>
        <mxCell id="4rZA8uT_l3_e-FzTYz1B-11" value="falso" style="rounded=0;whiteSpace=wrap;html=1;" vertex="1" parent="1">
          <mxGeometry x="510" y="380" width="120" height="60" as="geometry" />
        </mxCell>
        <mxCell id="4rZA8uT_l3_e-FzTYz1B-19" style="edgeStyle=orthogonalEdgeStyle;rounded=0;orthogonalLoop=1;jettySize=auto;html=1;" edge="1" parent="1" source="4rZA8uT_l3_e-FzTYz1B-17" target="NmY_XiNPB2C1pSM7X4Uj-16">
          <mxGeometry relative="1" as="geometry" />
        </mxCell>
        <mxCell id="4rZA8uT_l3_e-FzTYz1B-17" value="maior = x" style="shape=document;whiteSpace=wrap;html=1;boundedLbl=1;" vertex="1" parent="1">
          <mxGeometry x="520" y="600" width="120" height="80" as="geometry" />
        </mxCell>
      </root>
    </mxGraphModel>
  </diagram>
</mxfile>
